<?xml version='1.0' encoding='iso-8859-1'?>
<!DOCTYPE svg PUBLIC '-//W3C//DTD SVG 1.1//EN' 'http://www.w3.org/Graphics/SVG/1.1/DTD/svg11.dtd'>
<svg version="1.1" xmlns="http://www.w3.org/2000/svg" viewBox="0 0 452.593 452.593" xmlns:xlink="http://www.w3.org/1999/xlink" enable-background="new 0 0 452.593 452.593">
  <g>
    <path d="m430.511,44.654h-408.429c-12.176,0-22.082,9.906-22.082,22.082v250.224c0,12.176 9.906,22.082 22.082,22.082h154.323l-6.428,48.898h-27.506c-5.523,0-10,4.477-10,10s4.477,10 10,10h167.651c5.523,0 10-4.477 10-10s-4.477-10-10-10h-27.506l-6.428-48.898h154.323c12.176,0 22.082-9.906 22.082-22.082v-250.224c5.68434e-14-12.176-9.905-22.082-22.082-22.082zm-408.429,20h408.429c1.148,0 2.082,0.934 2.082,2.082v211.359h-412.593v-211.359c0-1.148 0.934-2.082 2.082-2.082zm240.363,323.285h-72.296l6.428-48.898h59.44l6.428,48.898zm168.066-68.897h-408.429c-1.148,0-2.082-0.934-2.082-2.082v-18.865h412.593v18.865c0,1.147-0.934,2.082-2.082,2.082z"/>
    <path d="m157.381,251.042h137.832c16.864,0 30.584-13.72 30.584-30.584v-93.832c0-16.864-13.72-30.584-30.584-30.584h-137.832c-16.864,0-30.584,13.72-30.584,30.584v93.832c0,16.864 13.72,30.584 30.584,30.584zm-10.584-124.417c0-5.836 4.748-10.584 10.584-10.584h137.832c5.836,0 10.584,4.748 10.584,10.584v93.832c0,5.836-4.748,10.584-10.584,10.584h-137.832c-5.836,0-10.584-4.748-10.584-10.584v-93.832z"/>
    <path d="m208.261,208.498c1.547,0.893 3.273,1.34 5,1.34s3.453-0.447 5-1.34l45.545-26.296c3.094-1.786 5-5.087 5-8.66s-1.906-6.874-5-8.66l-45.545-26.295c-3.094-1.786-6.906-1.786-10,0-3.094,1.786-5,5.087-5,8.66v52.591c2.84217e-14,3.572 1.906,6.873 5,8.66zm15-43.932l15.545,8.975-15.545,8.975v-17.95z"/>
  </g>
</svg>
