<?xml version='1.0' encoding='iso-8859-1'?>
<!DOCTYPE svg PUBLIC '-//W3C//DTD SVG 1.1//EN' 'http://www.w3.org/Graphics/SVG/1.1/DTD/svg11.dtd'>
<svg version="1.1" xmlns="http://www.w3.org/2000/svg" viewBox="0 0 450 450" xmlns:xlink="http://www.w3.org/1999/xlink" enable-background="new 0 0 450 450">
  <g>
    <path d="m440,285.4h-167.869l21.246-36.8h81.433c5.523,0 10-4.477 10-10v-178c0-5.523-4.477-10-10-10h-240c-5.523,0-10,4.477-10,10v178c0,5.523 4.477,10 10,10h81.433l21.246,36.8h-227.489c-5.523,0-10,4.477-10,10v50 44c0,5.523 4.477,10 10,10s10-4.477 10-10v-34h152v34c0,5.523 4.477,10 10,10s10-4.477 10-10v-34h109v34c0,5.523 4.477,10 10,10s10-4.477 10-10v-34h109v34c0,5.523 4.477,10 10,10s10-4.477 10-10v-44-50c0-5.523-4.477-10-10-10zm-217.983-56.8h-77.207v-158h220v158h-77.207c-3.573,0-6.874,1.906-8.66,5l-24.133,41.8-24.133-41.8c-1.786-3.094-5.087-5-8.66-5zm39.067,76.8h11.481l-8.4,30h-11.481l8.4-30zm-29.168,30h-11.481l8.4-30h11.481l-8.4,30zm-211.916,0v-30h152v30h-152zm172-30h16.066l-8.4,30h-7.666v-30zm92.934,30l8.4-30h7.666v30h-16.066zm36.066,0v-30h109v30h-109z"/>
    <path d="m318.477,150.698c0-3.573-1.906-6.874-5-8.66l-76.722-44.295c-3.094-1.786-6.906-1.786-10,0-3.094,1.786-5,5.087-5,8.66v88.591c0,3.573 1.906,6.874 5,8.66 1.547,0.894 3.273,1.34 5,1.34 1.726,0 3.453-0.447 5-1.34l76.722-44.295c3.094-1.787 5-5.088 5-8.661zm-76.722,26.975v-53.95l46.722,26.975-46.722,26.975z"/>
  </g>
</svg>
